<?xml version="1.0" encoding="utf-8"?>
<!-- Generator: Adobe Illustrator 19.1.0, SVG Export Plug-In . SVG Version: 6.00 Build 0)  -->
<svg version="1.1" id="Layer_1" xmlns="http://www.w3.org/2000/svg" xmlns:xlink="http://www.w3.org/1999/xlink" x="0px" y="0px"
	 viewBox="-281 367 48 60" style="enable-background:new -281 367 48 60;" xml:space="preserve">
<style type="text/css">
	.st0{opacity:0.5;}
	.st1{fill:#FFFFFF;}
</style>
<g class="st0">
	<path class="st1" d="M-233.9,390.6h-5.3l-1.9-3c-0.1-0.2-0.3-0.3-0.5-0.4l-1.7-0.5c-0.3-2.3-2.6-4.7-6.2-6.5
		c0.1-0.1,0.1-0.2,0.2-0.3c0.2-0.6,0.2-1.2,0-1.8c-0.4-0.8-1.2-1.5-2.2-1.8c-0.5-0.1-0.9-0.2-1.4-0.2c-1.3,0-2.4,0.6-2.8,1.5
		c-0.1,0.2-0.1,0.3-0.1,0.5c-1.2-0.2-2.3-0.3-3.4-0.3c-2.7,0-4.9,0.6-6.3,1.8l-1.8-0.6c-0.2-0.1-0.4-0.1-0.6,0l-5.4,1.8
		c-0.4,0.1-0.7,0.5-0.7,1c0,0.4,0.3,0.8,0.7,0.9l25,8h-7.8c-0.7-1.8-2.6-3.1-4.7-3.1s-4,1.3-4.7,3.1h-14.4c-0.6,0-1,0.4-1,1v2.7
		c0,0.6,0.4,1,1,1h3.6v8.4c0,3.1,2.9,5.7,6.4,5.7h25.8c3.5,0,6.4-2.6,6.4-5.7v-8.4h3.6c0.6,0,1-0.4,1-1v-2.7
		C-232.9,391-233.3,390.6-233.9,390.6z M-263.3,390.6c0.5-0.7,1.4-1.1,2.4-1.1s1.9,0.4,2.4,1.1H-263.3z"/>
	<path class="st1" d="M-265.9,414.4V412c0-0.6-0.4-1-1-1s-1,0.4-1,1v2.4c0,0.6,0.4,1,1,1C-266.4,415.4-265.9,414.9-265.9,414.4z"/>
	<path class="st1" d="M-261.9,414.4v-3.3c0-0.6-0.4-1-1-1s-1,0.4-1,1v3.3c0,0.6,0.4,1,1,1C-262.4,415.4-261.9,414.9-261.9,414.4z"/>
	<path class="st1" d="M-257.9,414.4V412c0-0.6-0.4-1-1-1s-1,0.4-1,1v2.4c0,0.6,0.4,1,1,1S-257.9,414.9-257.9,414.4z"/>
	<path class="st1" d="M-253.9,414.4v-3.3c0-0.6-0.4-1-1-1s-1,0.4-1,1v3.3c0,0.6,0.4,1,1,1S-253.9,414.9-253.9,414.4z"/>
	<path class="st1" d="M-249.9,414.4V412c0-0.6-0.4-1-1-1s-1,0.4-1,1v2.4c0,0.6,0.4,1,1,1S-249.9,414.9-249.9,414.4z"/>
	<path class="st1" d="M-245.9,414.4v-3.3c0-0.6-0.4-1-1-1s-1,0.4-1,1v3.3c0,0.6,0.4,1,1,1S-245.9,414.9-245.9,414.4z"/>
	<path class="st1" d="M-239.4,415.9h-35.1c-0.6,0-1,0.4-1,1c0,0.6,0.4,1,1,1h35.1c0.6,0,1-0.4,1-1
		C-238.4,416.2-238.8,415.9-239.4,415.9z"/>
</g>
</svg>
