<?xml version="1.0" encoding="utf-8"?>
<!-- Generator: Adobe Illustrator 19.1.0, SVG Export Plug-In . SVG Version: 6.00 Build 0)  -->
<svg version="1.1" id="Layer_1" xmlns="http://www.w3.org/2000/svg" xmlns:xlink="http://www.w3.org/1999/xlink" x="0px" y="0px"
	 viewBox="-255 334 100 125" style="enable-background:new -255 334 100 125;" xml:space="preserve">
<style type="text/css">
	.st0{opacity:0.5;}
	.st1{fill:#FFFFFF;}
</style>
<g class="st0">
	<path class="st1" d="M-190.6,380.6c-0.2,0.2-0.4,0.3-0.7,0.3l0.2-2c0.3,0.1,0.5,0.3,0.6,0.4s0.2,0.4,0.2,0.6
		C-190.3,380.2-190.4,380.4-190.6,380.6z"/>
</g>
<g class="st0">
	<path class="st1" d="M-192.1,375.6c0.1-0.2,0.3-0.3,0.5-0.3l-0.1,1.8c-0.2-0.1-0.4-0.3-0.5-0.4c-0.1-0.2-0.1-0.4-0.1-0.6
		C-192.3,375.9-192.2,375.7-192.1,375.6z"/>
</g>
<g class="st0">
	<path class="st1" d="M-196.3,372.7c1-0.8,2.3-1.4,3.6-1.6c0.3-0.1,0.7-0.1,1.1-0.1c0.2,0,0.4,0,0.6,0c0.2,0,0.4,0,0.6,0.1
		c0.2,0,0.4,0.1,0.6,0.1c2.6,0.6,4.6,2.6,5.3,5.1c0.2,0.8,0.3,1.7,0.3,2.6c-0.3,4-3.9,7.1-7.9,6.7c-2-0.2-3.7-1.1-5-2.6l-0.1-0.1
		c1.5-0.9,2.6-2.4,3-4.1c0.1-0.2,0.1-0.4,0.1-0.6c0-0.3,0.1-0.6,0.1-0.9C-194.2,375.6-195,373.9-196.3,372.7z M-193.2,377.6
		c0.3,0.4,0.8,0.8,1.4,1l-0.2,2.2c-0.2-0.1-0.3-0.3-0.5-0.5c-0.1-0.2-0.2-0.5-0.3-0.7h-1.4c0.1,0.7,0.3,1.3,0.6,1.7s0.8,0.7,1.4,0.8
		l-0.1,0.9l0.8,0.1l0.1-1c0.7,0,1.2-0.3,1.7-0.7c0.4-0.4,0.7-0.9,0.7-1.6c0-0.6-0.1-1-0.3-1.4c-0.3-0.4-0.8-0.7-1.6-1l0.2-2
		c0.3,0.2,0.5,0.5,0.6,0.9l1.3-0.1c0-0.5-0.2-1-0.5-1.3s-0.7-0.6-1.3-0.7v-0.5l-0.8-0.1v0.5c-0.6,0-1.1,0.2-1.5,0.6
		s-0.6,0.8-0.7,1.4C-193.6,376.6-193.5,377.1-193.2,377.6z"/>
</g>
<g class="st0">
	<path class="st1" d="M-199.7,373.2c0.4,0.1,0.7,0.3,1,0.4c0.3,0.2,0.6,0.4,0.9,0.7c0.8,0.8,1.4,1.9,1.4,3.1c0,0.2,0,0.4,0,0.6
		s-0.1,0.3-0.1,0.5c-0.3,1.1-1,2-1.9,2.6c-0.3,0.2-0.7,0.4-1,0.5s-0.7,0.2-1.1,0.2c-0.2,0-0.4,0-0.6,0l0,0l0,0
		c-2.6,0.3-21.2,1.4-29.8,0c-2.3-0.4-10.8-1.9-10.9-12.2c0-0.2,0.1-2.2,0.1-3.5c1.2-9.7,11.8-9.9,16.6-10.5c2-0.2,25.4-0.2,25.4-0.2
		c1.1,0,2.4,0.5,3.3,1.4v-0.1l13.6,12.2c1.8,1.7,2,4.6,0.3,6.5c-1-3.2-3.6-5.7-7-6.5c-0.2-0.1-0.5-0.1-0.7-0.1s-0.4-0.1-0.7-0.1
		c-1.5-0.1-2.9,0.1-4.2,0.6l-5.8-4.1c-4.8,0.8-16.9,2.5-16.9,2.5l0,0c-4.4,7.8,16.9,5.4,16.9,5.4c0.1,0,0.2,0,0.4,0l0,0
		C-200.2,373.1-199.9,373.2-199.7,373.2z"/>
</g>
<g class="st0">
	<path class="st1" d="M-206.1,396.6l-0.8-1.9c0.3,0,0.6,0,0.8,0.1s0.3,0.3,0.4,0.5c0.1,0.2,0.1,0.5,0,0.7
		C-205.7,396.2-205.9,396.4-206.1,396.6z"/>
</g>
<g class="st0">
	<path class="st1" d="M-208.8,390.4l-0.2-0.5l-0.7,0.3l0.2,0.5c-0.5,0.3-0.9,0.7-1.1,1.2s-0.1,1,0.1,1.5s0.6,0.9,1,1.1
		c0.5,0.2,1,0.3,1.8,0.2l0.9,2c-0.2,0-0.4-0.1-0.6-0.2c-0.2-0.1-0.4-0.3-0.6-0.5l-1.3,0.8c0.4,0.6,0.8,1,1.3,1.2s1,0.2,1.6,0
		l0.4,0.9l0.7-0.3l-0.4-0.9c0.6-0.4,1-0.8,1.1-1.4s0.1-1.1-0.1-1.7c-0.2-0.5-0.6-0.9-1-1.1s-1.1-0.2-1.9-0.1l-0.8-1.9
		c0.4,0,0.7,0.2,0.9,0.5l1.1-0.7c-0.3-0.4-0.7-0.7-1.1-0.9C-207.8,390.2-208.3,390.2-208.8,390.4z M-199.8,390.9
		c1.9,4.3-0.1,9.3-4.3,11.2c-4.3,1.9-9.3-0.1-11.2-4.3c-1.9-4.3,0.1-9.3,4.3-11.2C-206.6,384.7-201.6,386.6-199.8,390.9z"/>
</g>
<g class="st0">
	<path class="st1" d="M-209.1,391.8l0.7,1.7c-0.3,0-0.5,0-0.6-0.1s-0.3-0.2-0.4-0.4c-0.1-0.2-0.1-0.4-0.1-0.6
		C-209.3,392.1-209.2,391.9-209.1,391.8z"/>
</g>
<g class="st0">
	<path class="st1" d="M-162.9,422.6c0,0,1.8,13.4-10.9,14.9c-5,0.6-19.7-0.5-19.7-0.5v-0.1c-7.5-0.4-13.2-2.9-17-4.8
		c-3.6-1.8-14.6-9.2-14.6-9.2c-2.1-2.5-2.1-4.1-1.7-5.1c0.8-1.5,2.2-2.4,3.7-2.4c0.7,0,1.3,0.2,2,0.5c12.3,8.1,12.2,8.2,18.5,10
		c7.1,2.1,18.5-0.3,18.5-0.3c0.2-0.6,0.3-1.2,0.2-1.9c-0.5-4.1-7.1-4-7.1-4l0,0l-9.1-0.3c-2.3,0-5.2-1-5.2-3.5s1.9-4.6,4.1-4.6
		c0,0,21-0.1,24-0.1C-171.9,411-163.6,412.1-162.9,422.6z"/>
</g>
<g class="st0">
	<path class="st1" d="M-188.5,406.9c0.1,0.2,0.1,0.4,0.1,0.6c0,0.3-0.2,0.5-0.4,0.6c-0.2,0.2-0.4,0.2-0.7,0.2l0.4-2
		C-188.8,406.5-188.6,406.7-188.5,406.9z"/>
</g>
<g class="st0">
	<path class="st1" d="M-189.1,402.8l-0.4,1.8c-0.2-0.1-0.3-0.3-0.4-0.5c-0.1-0.2-0.1-0.4-0.1-0.5c0-0.2,0.1-0.4,0.3-0.5
		C-189.5,402.9-189.4,402.8-189.1,402.8z"/>
</g>
<g class="st0">
	<g>
		<g>
			<path class="st1" d="M-186.6,404c0-0.5-0.1-1-0.4-1.4c-0.3-0.4-0.7-0.6-1.2-0.8l0.1-0.5l-0.7-0.2l-0.1,0.5
				c-0.6-0.1-1.1,0.1-1.6,0.4c-0.4,0.3-0.7,0.7-0.8,1.3c-0.1,0.5,0,1.1,0.2,1.5c0.2,0.5,0.7,0.8,1.3,1.2l-0.4,2.2
				c-0.2-0.1-0.3-0.3-0.4-0.5c-0.1-0.2-0.2-0.5-0.2-0.8l-1.4-0.1c0,0.7,0.1,1.3,0.4,1.7l0.1,0.1h-5.9c-0.5-1.4-0.6-2.9-0.3-4.4
				c0.9-4.6,5.4-7.5,10-6.6s7.6,5.4,6.6,10c0,0.3-0.2,0.7-0.3,1.1h-5.9c0.2-0.3,0.3-0.6,0.4-1c0.1-0.5,0.1-1-0.2-1.5
				c-0.2-0.4-0.7-0.8-1.5-1.2l0.4-2c0.3,0.2,0.4,0.5,0.4,0.9L-186.6,404z"/>
		</g>
	</g>
</g>
</svg>
