<?xml version="1.0" encoding="utf-8"?>
<!-- Generator: Adobe Illustrator 19.1.0, SVG Export Plug-In . SVG Version: 6.00 Build 0)  -->
<svg version="1.1" id="Layer_1" xmlns="http://www.w3.org/2000/svg" xmlns:xlink="http://www.w3.org/1999/xlink" x="0px" y="0px"
	 viewBox="-255 334 100 125" style="enable-background:new -255 334 100 125;" xml:space="preserve">
<style type="text/css">
	.st0{opacity:0.5;fill:#FFFFFF;enable-background:new    ;}
</style>
<path class="st0" d="M-174,388.1l-1-3.1c-0.2-0.5-0.7-0.9-1.2-0.9h-0.7l-0.8-2.7c-0.2-0.5-0.7-0.9-1.2-0.9h-13.9
	c-0.6,0-1,0.4-1.2,0.9l-0.8,2.7h-0.7c-0.6,0-1,0.4-1.2,0.9l-1,3.1c-0.1,0.4-0.1,0.8,0.2,1.1c0.2,0.3,0.6,0.5,1,0.5h0.5l0.5,5
	c-0.1,0-0.2,0.1-0.3,0.2c-0.2,0.2-0.2,0.4-0.2,0.6l0.9,9.4c0,0.4,0.3,0.6,0.6,0.7l0.5,5.7c0.1,0.7,0.6,1.2,1.3,1.2h13.7
	c0.7,0,1.2-0.5,1.3-1.1l0.5-5.7c0.3-0.1,0.6-0.3,0.6-0.7l0.9-9.4c0-0.2-0.1-0.5-0.2-0.6c-0.1-0.1-0.2-0.2-0.3-0.2l0.5-5h0.5
	c0.4,0,0.8-0.2,1-0.5C-174,388.9-173.9,388.5-174,388.1z M-194.9,386.2h18.1l0.4,1.3h-18.9L-194.9,386.2z M-192.2,382.6h12.6
	l0.4,1.4h-13.4L-192.2,382.6z M-191.9,410.4l-0.4-4.7h13l-0.4,4.7H-191.9z M-178.4,394.6h-15l-0.5-4.9h16L-178.4,394.6z"/>
<path class="st0" d="M-188,415.5v14.7h-43.8v-69.1h43.8v16.4h4.2v-19.9c0-3.3-2.7-6.1-6.1-6.1H-230c-3.3,0-6.1,2.7-6.1,6.1v77.8
	c0,3.3,2.7,6.1,6.1,6.1h40.1c3.3,0,6.1-2.7,6.1-6.1v-19.9H-188z M-216.3,355.9h12.8c0.4,0,0.7,0.3,0.7,0.7s-0.3,0.7-0.7,0.7h-12.8
	c-0.4,0-0.7-0.3-0.7-0.7C-217.1,356.2-216.7,355.9-216.3,355.9z M-209.9,438.5c-1.7,0-3-1.4-3-3c0-1.6,1.4-3,3-3s3,1.4,3,3
	C-206.9,437.1-208.2,438.5-209.9,438.5z"/>
</svg>
