<?xml version="1.0" encoding="utf-8"?>
<!-- Generator: Adobe Illustrator 19.1.0, SVG Export Plug-In . SVG Version: 6.00 Build 0)  -->
<svg version="1.1" id="Layer_1" xmlns="http://www.w3.org/2000/svg" xmlns:xlink="http://www.w3.org/1999/xlink" x="0px" y="0px"
	 viewBox="-590.8 384 751.6 130" style="enable-background:new -590.8 384 751.6 130;" xml:space="preserve">
<style type="text/css">
	.st0{opacity:0.5;fill:#FFFFFF;enable-background:new    ;}
</style>
<path class="st0" d="M-307.9,429.5l-38.8-6c0,0-10.4-23.3-16.4-34.5c-6.9-11.2-11.2,0-11.2,0l-17.3,34.5l-39.7,6
	c-10.4,4.3-1.7,12.1-1.7,12.1l27.6,26.7l-6.9,38.8c-1.7,11.2,10.4,5.2,10.4,5.2l33.7-17.3l33.7,17.3c11.2,5.2,9.5-6.9,9.5-6.9l-6-38
	l26.7-26.7C-296.7,432.1-307.9,429.5-307.9,429.5z"/>
<path class="st0" d="M1,429.5l-38.8-6c0,0-10.4-23.3-16.4-34.5c-6.9-11.2-11.2,0-11.2,0l-17.3,34.5l-39.7,6
	c-10.4,4.3-1.7,12.1-1.7,12.1l27.6,26.7l-6.9,38.8c-1.7,11.2,10.4,5.2,10.4,5.2l33.7-17.3l33.7,17.3c11.2,5.2,9.5-6.9,9.5-6.9l-6-38
	l26.7-26.7C12.3,432.1,1,429.5,1,429.5z"/>
<path class="st0" d="M-153.4,429.5l-38.8-6c0,0-10.4-23.3-16.4-34.5c-6.9-11.2-11.2,0-11.2,0l-17.3,34.5l-39.7,6
	c-10.4,4.3-1.7,12.1-1.7,12.1l27.6,26.7l-6.9,38.8c-1.7,11.2,10.4,5.2,10.4,5.2l33.7-17.3l33.7,17.3c11.2,5.2,9.5-6.9,9.5-6.9l-6-38
	l26.7-26.7C-142.2,432.1-153.4,429.5-153.4,429.5z"/>
<path class="st0" d="M-462.3,429.5l-38.8-6c0,0-10.4-23.3-16.4-34.5c-6.9-11.2-11.2,0-11.2,0l-17.3,34.5l-39.7,6
	c-10.4,4.3-1.7,12.1-1.7,12.1l27.6,26.7l-6.9,38.8c-1.7,11.2,10.4,5.2,10.4,5.2l33.7-17.3l33.7,17.3c11.2,5.2,9.5-6.9,9.5-6.9l-6-38
	l26.7-26.7C-451.1,432.1-462.3,429.5-462.3,429.5z"/>
<path class="st0" d="M154.6,429.5l-38.8-6c0,0-10.4-23.3-16.4-34.5c-6.9-11.2-11.2,0-11.2,0l-17.3,34.5l-39.7,6
	c-10.4,4.3-1.7,11.2-1.7,11.2l27.6,26.7l-6.9,38.8c-1.7,11.2,10.4,5.2,10.4,5.2l33.7-17.3l33.7,17.3c11.2,5.2,9.5-6.9,9.5-6.9l-6-38
	l26.7-26.7C165.8,432.1,154.6,429.5,154.6,429.5z"/>
</svg>
